# xmcd
#
# Track frame offsets: 
#        150
#        19111
#        58896
#        125225
#        154394
#        201895
#        287573
#
# Disc length: 4436 seconds
#
# Revision: 2
# Processed by: cddbd v1.5.2PL0 Copyright (c) Steve Scherf et al.
# Submitted via: ExactAudioCopy v1.0b3
#
DISCID=6a115207
DTITLE=Ravi Shankar - The Very Best of Ravi Shankar [CD 1)
DYEAR=2010
DGENRE=World
TTITLE0=Prabhati (Based on Raga Gunkali) (feat. Yehudi Menuhin on viol
TTITLE0=in)
TTITLE1=Swara-Kakali (Based on Raga Tilang)
TTITLE2=Raga Piloo
TTITLE3=Dhun
TTITLE4=Twilight Mood
TTITLE5=Raga Kaushi Kanhara - Alap-Jor-Jhala (Live at Carnegie Hall)
TTITLE6=Raga Kaushi Kanhara - Gat in Dhamar (Live at Carnegie Hall)
EXTD=
EXTT0=
EXTT1=
EXTT2=
EXTT3=
EXTT4=
EXTT5=
EXTT6=
PLAYORDER=
